_________________________  Visit us at _________________________
  
http://p2pdl.com  ____________________________  http://p2pdl.com

Blood 2012 BRRip 480p x264 - VYTO

Genre: Thriller
Plot: Thriller charting the moral collapse of a police family. Two cop 
brothers, smothered by the shadow of their former police chief father, 
must investigate a crime they themselves have committed.
Director: Nick Murphy
Stars: Paul Bettany, Mark Strong, Brian Cox
Rated: N/A


Info: 
http://www.imdb.com/title/tt2078552/

General
Format                         : MPEG-4
File size                      : 298 MiB
Duration                       : 1h 32mn
Overall bit rate mode          : Variable
Overall bit rate               : 451 Kbps

Video
Format                         : AVC
Format profile                 : High 10@L4.1
Bit rate                       : 409 Kbps
Width                          : 720 pixels
Height                         : 304 pixels
Display aspect ratio           : 2.35:1
Frame rate mode                : Constant
Frame rate                     : 23.976 fps
Bit depth                      : 10 bits
Stream size                    : 269 MiB (90%)

Audio
Format                         : AAC
Bit rate                       : 39.9 Kbps
Channel(s)                     : 2 channels
Channel positions              : Front: L R
Sampling rate                  : 48.0 KHz / 24.0 KHz
Stream size                    : 26.4 MiB (9%)
Language                       : English

Subtitle                       : Yes (English)
Source                         : 720p.BluRay.x264-ROVERS (Thanks)

Screens:
 
http://www.ultraimg.com/images/GKbW.png 
http://www.ultraimg.com/images/OghEN.png 
http://www.ultraimg.com/images/4cOYT.png 
http://www.ultraimg.com/images/jEm6y.png 
http://www.ultraimg.com/images/ghnoN.png 
http://www.ultraimg.com/images/49GER.png

----------------------------------------------------------------------------------------------------


Encoded using revolutionary 10bit encoding, which enables us to provide you more crispier 
and sharper images at small sizes, just make sure you follow our instructions without a fault.
Recommend to you to use latest version of VLC player. Install K-Lite Codec Pack or shark007 codecs
in case of any kind of problem in playback (For non-VLC Media Player users). Alternatively, install
Core AVC codecs, the fastest decoder that there is coupled with Community Center Codec Pack and play
on Windows Media Player Classic. Check sample to be sure.
Enjoy!

Encoder Notes:Looking For Early Access To Anything You Can Provide DVDScr, R5, DVDR, BluRay, Direct
Audio, Music Releases and Seedboxes. We require dedicated servers, so as to do more 
and fast releases of movies.
If You Got anything to offer please contact us at "contact@p2pdl.com".

Face book Fan Page:   
http://www.fb.me/p2pdl